<mxfile host="app.diagrams.net" agent="Mozilla/5.0 (Macintosh; Intel Mac OS X 10_15_7) AppleWebKit/605.1.15 (KHTML, like Gecko) Version/18.3 Safari/605.1.15" version="27.0.6">
  <diagram name="Page-1" id="NZVvb-CScf5ZL6aB-f5V">
    <mxGraphModel dx="2335" dy="2182" grid="1" gridSize="10" guides="1" tooltips="1" connect="1" arrows="1" fold="1" page="1" pageScale="1" pageWidth="827" pageHeight="1169" background="#ffffff" math="0" shadow="0">
      <root>
        <mxCell id="0" />
        <mxCell id="1" parent="0" />
        <mxCell id="lHyy_BqDiXbWExlvF2zH-4" value="Private subnet" style="points=[[0,0],[0.25,0],[0.5,0],[0.75,0],[1,0],[1,0.25],[1,0.5],[1,0.75],[1,1],[0.75,1],[0.5,1],[0.25,1],[0,1],[0,0.75],[0,0.5],[0,0.25]];outlineConnect=0;gradientColor=none;html=1;whiteSpace=wrap;fontSize=12;fontStyle=0;container=1;pointerEvents=0;collapsible=0;recursiveResize=0;shape=mxgraph.aws4.group;grIcon=mxgraph.aws4.group_security_group;grStroke=0;strokeColor=#00A4A6;fillColor=#E6F6F7;verticalAlign=top;align=left;spacingLeft=30;fontColor=#147EBA;dashed=0;" vertex="1" parent="1">
          <mxGeometry x="350" y="830" width="540" height="310" as="geometry" />
        </mxCell>
        <mxCell id="lHyy_BqDiXbWExlvF2zH-5" value="2" style="text;html=1;align=center;verticalAlign=middle;resizable=0;points=[];autosize=1;strokeColor=none;fillColor=none;fontColor=#1DA3A5;" vertex="1" parent="lHyy_BqDiXbWExlvF2zH-4">
          <mxGeometry x="102" y="-1" width="30" height="30" as="geometry" />
        </mxCell>
        <mxCell id="5uDzMRbxscLC0Sf3smg1-1" value="Availability zone" style="sketch=0;outlineConnect=0;gradientColor=none;html=1;whiteSpace=wrap;fontSize=12;fontStyle=0;shape=mxgraph.aws4.group;grIcon=mxgraph.aws4.group_availability_zone;strokeColor=#545B64;fillColor=none;verticalAlign=top;align=left;spacingLeft=30;fontColor=#545B64;dashed=1;" parent="1" vertex="1">
          <mxGeometry x="-390" y="550" width="580" height="970" as="geometry" />
        </mxCell>
        <mxCell id="lHyy_BqDiXbWExlvF2zH-19" value="Security Group" style="fontStyle=0;verticalAlign=top;align=center;spacingTop=-2;fillColor=none;rounded=0;whiteSpace=wrap;html=1;strokeColor=#FF0000;strokeWidth=2;dashed=1;container=0;collapsible=0;expand=0;recursiveResize=0;" vertex="1" parent="1">
          <mxGeometry x="-310" y="840" width="440" height="280" as="geometry" />
        </mxCell>
        <mxCell id="5uDzMRbxscLC0Sf3smg1-2" value="AWS Cloud" style="sketch=0;outlineConnect=0;gradientColor=none;html=1;whiteSpace=wrap;fontSize=12;fontStyle=0;shape=mxgraph.aws4.group;grIcon=mxgraph.aws4.group_aws_cloud;strokeColor=#AAB7B8;fillColor=none;verticalAlign=top;align=left;spacingLeft=30;fontColor=#AAB7B8;dashed=0;" parent="1" vertex="1">
          <mxGeometry x="-690" y="-100" width="1800" height="1700" as="geometry" />
        </mxCell>
        <mxCell id="5uDzMRbxscLC0Sf3smg1-22" value="Availability zone" style="sketch=0;outlineConnect=0;gradientColor=none;html=1;whiteSpace=wrap;fontSize=12;fontStyle=0;shape=mxgraph.aws4.group;grIcon=mxgraph.aws4.group_availability_zone;strokeColor=#545B64;fillColor=none;verticalAlign=top;align=left;spacingLeft=30;fontColor=#545B64;dashed=1;" parent="1" vertex="1">
          <mxGeometry x="330" y="550" width="620" height="970" as="geometry" />
        </mxCell>
        <mxCell id="5uDzMRbxscLC0Sf3smg1-3" value="Region" style="sketch=0;outlineConnect=0;gradientColor=none;html=1;whiteSpace=wrap;fontSize=12;fontStyle=0;shape=mxgraph.aws4.group;grIcon=mxgraph.aws4.group_region;strokeColor=#879196;fillColor=none;verticalAlign=top;align=left;spacingLeft=30;fontColor=#879196;dashed=1;" parent="1" vertex="1">
          <mxGeometry x="-650" y="90" width="1700" height="1480" as="geometry" />
        </mxCell>
        <mxCell id="lHyy_BqDiXbWExlvF2zH-14" value="" style="rounded=1;arcSize=10;dashed=1;fillColor=none;gradientColor=none;dashPattern=8 3 1 3;strokeWidth=2;" vertex="1" parent="1">
          <mxGeometry x="-300" y="980" width="420" height="140" as="geometry" />
        </mxCell>
        <mxCell id="5uDzMRbxscLC0Sf3smg1-5" value="VPC" style="points=[[0,0],[0.25,0],[0.5,0],[0.75,0],[1,0],[1,0.25],[1,0.5],[1,0.75],[1,1],[0.75,1],[0.5,1],[0.25,1],[0,1],[0,0.75],[0,0.5],[0,0.25]];outlineConnect=0;gradientColor=none;html=1;whiteSpace=wrap;fontSize=12;fontStyle=0;container=0;pointerEvents=0;collapsible=0;recursiveResize=0;shape=mxgraph.aws4.group;grIcon=mxgraph.aws4.group_vpc2;strokeColor=#8C4FFF;fillColor=none;verticalAlign=top;align=left;spacingLeft=30;fontColor=#AAB7B8;dashed=0;" parent="1" vertex="1">
          <mxGeometry x="-440" y="360" width="1430" height="1180" as="geometry" />
        </mxCell>
        <mxCell id="5uDzMRbxscLC0Sf3smg1-4" value="ap-southeast-2" style="text;html=1;align=center;verticalAlign=middle;resizable=0;points=[];autosize=1;strokeColor=none;fillColor=none;" parent="1" vertex="1">
          <mxGeometry x="-430" y="90" width="100" height="30" as="geometry" />
        </mxCell>
        <mxCell id="5uDzMRbxscLC0Sf3smg1-6" value="Users" style="sketch=0;outlineConnect=0;fontColor=#232F3E;gradientColor=none;strokeColor=#232F3E;fillColor=#ffffff;dashed=0;verticalLabelPosition=bottom;verticalAlign=top;align=center;html=1;fontSize=12;fontStyle=0;aspect=fixed;shape=mxgraph.aws4.resourceIcon;resIcon=mxgraph.aws4.users;" parent="1" vertex="1">
          <mxGeometry x="245" y="-220" width="60" height="60" as="geometry" />
        </mxCell>
        <mxCell id="5uDzMRbxscLC0Sf3smg1-7" value="" style="endArrow=classic;html=1;rounded=0;entryX=0.5;entryY=0;entryDx=0;entryDy=0;entryPerimeter=0;" parent="1" target="5uDzMRbxscLC0Sf3smg1-10" edge="1">
          <mxGeometry width="50" height="50" relative="1" as="geometry">
            <mxPoint x="270" y="-130" as="sourcePoint" />
            <mxPoint x="160" y="340" as="targetPoint" />
          </mxGeometry>
        </mxCell>
        <mxCell id="5uDzMRbxscLC0Sf3smg1-8" value="" style="html=1;verticalLabelPosition=bottom;align=center;labelBackgroundColor=#ffffff;verticalAlign=top;strokeWidth=2;strokeColor=#0080F0;shadow=0;dashed=0;shape=mxgraph.ios7.icons.user;" parent="1" vertex="1">
          <mxGeometry x="-39.5" y="-240" width="40" height="45" as="geometry" />
        </mxCell>
        <mxCell id="5uDzMRbxscLC0Sf3smg1-9" value="DevOps Engineer" style="text;html=1;align=center;verticalAlign=middle;resizable=0;points=[];autosize=1;strokeColor=none;fillColor=none;" parent="1" vertex="1">
          <mxGeometry x="-70" y="-195" width="120" height="30" as="geometry" />
        </mxCell>
        <mxCell id="5uDzMRbxscLC0Sf3smg1-10" value="" style="sketch=0;points=[[0,0,0],[0.25,0,0],[0.5,0,0],[0.75,0,0],[1,0,0],[0,1,0],[0.25,1,0],[0.5,1,0],[0.75,1,0],[1,1,0],[0,0.25,0],[0,0.5,0],[0,0.75,0],[1,0.25,0],[1,0.5,0],[1,0.75,0]];outlineConnect=0;fontColor=#232F3E;fillColor=#8C4FFF;strokeColor=#ffffff;dashed=0;verticalLabelPosition=bottom;verticalAlign=top;align=center;html=1;fontSize=12;fontStyle=0;aspect=fixed;shape=mxgraph.aws4.resourceIcon;resIcon=mxgraph.aws4.route_53;" parent="1" vertex="1">
          <mxGeometry x="238.79" y="-70" width="60" height="60" as="geometry" />
        </mxCell>
        <mxCell id="5uDzMRbxscLC0Sf3smg1-11" value="Route 53" style="text;html=1;align=center;verticalAlign=middle;resizable=0;points=[];autosize=1;strokeColor=none;fillColor=none;" parent="1" vertex="1">
          <mxGeometry x="235" y="-10" width="70" height="30" as="geometry" />
        </mxCell>
        <mxCell id="5uDzMRbxscLC0Sf3smg1-12" value="" style="endArrow=classic;html=1;rounded=0;exitX=0.446;exitY=1;exitDx=0;exitDy=0;exitPerimeter=0;edgeStyle=orthogonalEdgeStyle;strokeColor=#FF0000;" parent="1" source="5uDzMRbxscLC0Sf3smg1-9" target="5uDzMRbxscLC0Sf3smg1-21" edge="1">
          <mxGeometry width="50" height="50" relative="1" as="geometry">
            <mxPoint x="91" y="80" as="sourcePoint" />
            <mxPoint x="141" y="30" as="targetPoint" />
            <Array as="points">
              <mxPoint x="-16" y="310" />
              <mxPoint x="264" y="310" />
            </Array>
          </mxGeometry>
        </mxCell>
        <mxCell id="5uDzMRbxscLC0Sf3smg1-14" value="" style="sketch=0;outlineConnect=0;fontColor=#232F3E;gradientColor=none;fillColor=#7AA116;strokeColor=none;dashed=0;verticalLabelPosition=bottom;verticalAlign=top;align=center;html=1;fontSize=12;fontStyle=0;aspect=fixed;pointerEvents=1;shape=mxgraph.aws4.bucket;" parent="1" vertex="1">
          <mxGeometry x="653.0699999999999" y="175.75" width="50.48" height="52.5" as="geometry" />
        </mxCell>
        <mxCell id="5uDzMRbxscLC0Sf3smg1-15" value="S3 for static&amp;nbsp;&lt;div&gt;resource hosting&lt;/div&gt;" style="text;html=1;align=center;verticalAlign=middle;resizable=0;points=[];autosize=1;strokeColor=none;fillColor=none;" parent="1" vertex="1">
          <mxGeometry x="623.31" y="227" width="110" height="40" as="geometry" />
        </mxCell>
        <mxCell id="5uDzMRbxscLC0Sf3smg1-19" value="Private subnet" style="points=[[0,0],[0.25,0],[0.5,0],[0.75,0],[1,0],[1,0.25],[1,0.5],[1,0.75],[1,1],[0.75,1],[0.5,1],[0.25,1],[0,1],[0,0.75],[0,0.5],[0,0.25]];outlineConnect=0;gradientColor=none;html=1;whiteSpace=wrap;fontSize=12;fontStyle=0;container=1;pointerEvents=0;collapsible=0;recursiveResize=0;shape=mxgraph.aws4.group;grIcon=mxgraph.aws4.group_security_group;grStroke=0;strokeColor=#00A4A6;fillColor=#E6F6F7;verticalAlign=top;align=left;spacingLeft=30;fontColor=#147EBA;dashed=0;" parent="1" vertex="1">
          <mxGeometry x="-360" y="810" width="530" height="350" as="geometry" />
        </mxCell>
        <mxCell id="lHyy_BqDiXbWExlvF2zH-26" value="" style="rounded=1;arcSize=10;dashed=1;strokeColor=#F59D56;fillColor=none;gradientColor=none;dashPattern=8 4;strokeWidth=2;" vertex="1" parent="5uDzMRbxscLC0Sf3smg1-19">
          <mxGeometry x="30" y="50" width="1170" height="260" as="geometry" />
        </mxCell>
        <mxCell id="lHyy_BqDiXbWExlvF2zH-33" value="ECS Cluster" style="fillColor=none;strokeColor=#5A6C86;dashed=1;verticalAlign=top;fontStyle=0;fontColor=#5A6C86;whiteSpace=wrap;html=1;" vertex="1" parent="5uDzMRbxscLC0Sf3smg1-19">
          <mxGeometry x="110" y="100" width="362" height="185" as="geometry" />
        </mxCell>
        <mxCell id="lHyy_BqDiXbWExlvF2zH-32" value="Security group" style="fillColor=none;strokeColor=#DD3522;verticalAlign=top;fontStyle=0;fontColor=#DD3522;whiteSpace=wrap;html=1;" vertex="1" parent="5uDzMRbxscLC0Sf3smg1-19">
          <mxGeometry x="90" y="70" width="402" height="230" as="geometry" />
        </mxCell>
        <mxCell id="5uDzMRbxscLC0Sf3smg1-20" value="1" style="text;html=1;align=center;verticalAlign=middle;resizable=0;points=[];autosize=1;strokeColor=none;fillColor=none;fontColor=#1DA3A5;" parent="5uDzMRbxscLC0Sf3smg1-19" vertex="1">
          <mxGeometry x="102" y="-1" width="30" height="30" as="geometry" />
        </mxCell>
        <mxCell id="5uDzMRbxscLC0Sf3smg1-51" value="" style="group" parent="5uDzMRbxscLC0Sf3smg1-19" vertex="1" connectable="0">
          <mxGeometry x="242" y="130" width="120" height="110" as="geometry" />
        </mxCell>
        <mxCell id="5uDzMRbxscLC0Sf3smg1-54" value="ECS&lt;div&gt;(ocr-recognition-task)&lt;/div&gt;" style="whiteSpace=wrap;html=1;fillColor=none;fontColor=#333333;strokeColor=none;" parent="5uDzMRbxscLC0Sf3smg1-51" vertex="1">
          <mxGeometry y="71.17916666666667" width="105.12857142857143" height="19.415" as="geometry" />
        </mxCell>
        <mxCell id="lHyy_BqDiXbWExlvF2zH-3" value="" style="sketch=0;points=[[0,0,0],[0.25,0,0],[0.5,0,0],[0.75,0,0],[1,0,0],[0,1,0],[0.25,1,0],[0.5,1,0],[0.75,1,0],[1,1,0],[0,0.25,0],[0,0.5,0],[0,0.75,0],[1,0.25,0],[1,0.5,0],[1,0.75,0]];outlineConnect=0;fontColor=#232F3E;fillColor=#ED7100;strokeColor=#ffffff;dashed=0;verticalLabelPosition=bottom;verticalAlign=top;align=center;html=1;fontSize=12;fontStyle=0;aspect=fixed;shape=mxgraph.aws4.resourceIcon;resIcon=mxgraph.aws4.ecs;" vertex="1" parent="5uDzMRbxscLC0Sf3smg1-51">
          <mxGeometry x="30" y="18.333333333333332" width="42.857142857142854" height="42.857142857142854" as="geometry" />
        </mxCell>
        <mxCell id="lHyy_BqDiXbWExlvF2zH-16" value="ECS&lt;div&gt;(frontend-service)&lt;/div&gt;" style="whiteSpace=wrap;html=1;fillColor=none;fontColor=#333333;strokeColor=none;" vertex="1" parent="5uDzMRbxscLC0Sf3smg1-19">
          <mxGeometry x="120" y="209.99916666666667" width="96.36785714285715" height="19.415" as="geometry" />
        </mxCell>
        <mxCell id="lHyy_BqDiXbWExlvF2zH-17" value="" style="sketch=0;points=[[0,0,0],[0.25,0,0],[0.5,0,0],[0.75,0,0],[1,0,0],[0,1,0],[0.25,1,0],[0.5,1,0],[0.75,1,0],[1,1,0],[0,0.25,0],[0,0.5,0],[0,0.75,0],[1,0.25,0],[1,0.5,0],[1,0.75,0]];outlineConnect=0;fontColor=#232F3E;fillColor=#ED7100;strokeColor=#ffffff;dashed=0;verticalLabelPosition=bottom;verticalAlign=top;align=center;html=1;fontSize=12;fontStyle=0;aspect=fixed;shape=mxgraph.aws4.resourceIcon;resIcon=mxgraph.aws4.ecs;" vertex="1" parent="5uDzMRbxscLC0Sf3smg1-19">
          <mxGeometry x="148.54" y="150.0033333333334" width="39.285714285714285" height="39.285714285714285" as="geometry" />
        </mxCell>
        <mxCell id="lHyy_BqDiXbWExlvF2zH-8" value="" style="group" vertex="1" connectable="0" parent="5uDzMRbxscLC0Sf3smg1-19">
          <mxGeometry x="362" y="130" width="110" height="110" as="geometry" />
        </mxCell>
        <mxCell id="lHyy_BqDiXbWExlvF2zH-9" value="ECS&lt;div&gt;(backend-service)&lt;/div&gt;" style="whiteSpace=wrap;html=1;fillColor=none;fontColor=#333333;strokeColor=none;" vertex="1" parent="lHyy_BqDiXbWExlvF2zH-8">
          <mxGeometry y="71.17916666666667" width="96.36785714285715" height="19.415" as="geometry" />
        </mxCell>
        <mxCell id="lHyy_BqDiXbWExlvF2zH-10" value="" style="sketch=0;points=[[0,0,0],[0.25,0,0],[0.5,0,0],[0.75,0,0],[1,0,0],[0,1,0],[0.25,1,0],[0.5,1,0],[0.75,1,0],[1,1,0],[0,0.25,0],[0,0.5,0],[0,0.75,0],[1,0.25,0],[1,0.5,0],[1,0.75,0]];outlineConnect=0;fontColor=#232F3E;fillColor=#ED7100;strokeColor=#ffffff;dashed=0;verticalLabelPosition=bottom;verticalAlign=top;align=center;html=1;fontSize=12;fontStyle=0;aspect=fixed;shape=mxgraph.aws4.resourceIcon;resIcon=mxgraph.aws4.ecs;" vertex="1" parent="lHyy_BqDiXbWExlvF2zH-8">
          <mxGeometry x="27.5" y="18.333333333333332" width="39.285714285714285" height="39.285714285714285" as="geometry" />
        </mxCell>
        <mxCell id="5uDzMRbxscLC0Sf3smg1-17" value="" style="endArrow=classic;startArrow=classic;html=1;rounded=0;" parent="1" target="5uDzMRbxscLC0Sf3smg1-14" edge="1">
          <mxGeometry width="50" height="50" relative="1" as="geometry">
            <mxPoint x="446.3842056880858" y="203.13262714052917" as="sourcePoint" />
            <mxPoint x="128.31" y="182" as="targetPoint" />
          </mxGeometry>
        </mxCell>
        <mxCell id="5uDzMRbxscLC0Sf3smg1-21" value="" style="sketch=0;outlineConnect=0;fontColor=#232F3E;gradientColor=none;fillColor=#8C4FFF;strokeColor=none;dashed=0;verticalLabelPosition=bottom;verticalAlign=top;align=center;html=1;fontSize=12;fontStyle=0;aspect=fixed;pointerEvents=1;shape=mxgraph.aws4.internet_gateway;" parent="1" vertex="1">
          <mxGeometry x="240.00000000000006" y="340" width="48" height="48" as="geometry" />
        </mxCell>
        <mxCell id="5uDzMRbxscLC0Sf3smg1-23" value="Internet Gateway" style="text;html=1;align=center;verticalAlign=middle;resizable=0;points=[];autosize=1;strokeColor=none;fillColor=none;" parent="1" vertex="1">
          <mxGeometry x="213.79000000000005" y="388" width="110" height="30" as="geometry" />
        </mxCell>
        <mxCell id="5uDzMRbxscLC0Sf3smg1-24" value="Public subnet" style="points=[[0,0],[0.25,0],[0.5,0],[0.75,0],[1,0],[1,0.25],[1,0.5],[1,0.75],[1,1],[0.75,1],[0.5,1],[0.25,1],[0,1],[0,0.75],[0,0.5],[0,0.25]];outlineConnect=0;gradientColor=none;html=1;whiteSpace=wrap;fontSize=12;fontStyle=0;container=1;pointerEvents=0;collapsible=0;recursiveResize=0;shape=mxgraph.aws4.group;grIcon=mxgraph.aws4.group_security_group;grStroke=0;strokeColor=#7AA116;fillColor=#F2F6E8;verticalAlign=top;align=left;spacingLeft=30;fontColor=#248814;dashed=0;" parent="1" vertex="1">
          <mxGeometry x="-360" y="580" width="520" height="190" as="geometry" />
        </mxCell>
        <mxCell id="5uDzMRbxscLC0Sf3smg1-25" value="1" style="text;html=1;align=center;verticalAlign=middle;resizable=0;points=[];autosize=1;strokeColor=none;fillColor=none;fontColor=#7CA032;" parent="5uDzMRbxscLC0Sf3smg1-24" vertex="1">
          <mxGeometry x="96" y="-2" width="30" height="30" as="geometry" />
        </mxCell>
        <mxCell id="5uDzMRbxscLC0Sf3smg1-29" value="Public subnet" style="points=[[0,0],[0.25,0],[0.5,0],[0.75,0],[1,0],[1,0.25],[1,0.5],[1,0.75],[1,1],[0.75,1],[0.5,1],[0.25,1],[0,1],[0,0.75],[0,0.5],[0,0.25]];outlineConnect=0;gradientColor=none;html=1;whiteSpace=wrap;fontSize=12;fontStyle=0;container=1;pointerEvents=0;collapsible=0;recursiveResize=0;shape=mxgraph.aws4.group;grIcon=mxgraph.aws4.group_security_group;grStroke=0;strokeColor=#7AA116;fillColor=#F2F6E8;verticalAlign=top;align=left;spacingLeft=30;fontColor=#248814;dashed=0;" parent="1" vertex="1">
          <mxGeometry x="370" y="580" width="310" height="200" as="geometry" />
        </mxCell>
        <mxCell id="5uDzMRbxscLC0Sf3smg1-30" value="2" style="text;html=1;align=center;verticalAlign=middle;resizable=0;points=[];autosize=1;strokeColor=none;fillColor=none;fontColor=#7CA032;" parent="5uDzMRbxscLC0Sf3smg1-29" vertex="1">
          <mxGeometry x="96" y="-2" width="30" height="30" as="geometry" />
        </mxCell>
        <mxCell id="5uDzMRbxscLC0Sf3smg1-31" value="Private subnet" style="points=[[0,0],[0.25,0],[0.5,0],[0.75,0],[1,0],[1,0.25],[1,0.5],[1,0.75],[1,1],[0.75,1],[0.5,1],[0.25,1],[0,1],[0,0.75],[0,0.5],[0,0.25]];outlineConnect=0;gradientColor=none;html=1;whiteSpace=wrap;fontSize=12;fontStyle=0;container=1;pointerEvents=0;collapsible=0;recursiveResize=0;shape=mxgraph.aws4.group;grIcon=mxgraph.aws4.group_security_group;grStroke=0;strokeColor=#00A4A6;fillColor=#E6F6F7;verticalAlign=top;align=left;spacingLeft=30;fontColor=#147EBA;dashed=0;" parent="1" vertex="1">
          <mxGeometry x="-360" y="1240" width="520" height="250" as="geometry" />
        </mxCell>
        <mxCell id="5uDzMRbxscLC0Sf3smg1-32" value="Security group" style="fillColor=none;strokeColor=#DD3522;verticalAlign=top;fontStyle=0;fontColor=#DD3522;whiteSpace=wrap;html=1;" parent="5uDzMRbxscLC0Sf3smg1-31" vertex="1">
          <mxGeometry x="60" y="40" width="200" height="170" as="geometry" />
        </mxCell>
        <mxCell id="5uDzMRbxscLC0Sf3smg1-33" value="3" style="text;html=1;align=center;verticalAlign=middle;resizable=0;points=[];autosize=1;strokeColor=none;fillColor=none;fontColor=#1DA3A5;" parent="5uDzMRbxscLC0Sf3smg1-31" vertex="1">
          <mxGeometry x="102" y="-1" width="30" height="30" as="geometry" />
        </mxCell>
        <mxCell id="5uDzMRbxscLC0Sf3smg1-34" value="" style="sketch=0;outlineConnect=0;fontColor=#232F3E;gradientColor=none;fillColor=#C925D1;strokeColor=none;dashed=0;verticalLabelPosition=bottom;verticalAlign=top;align=center;html=1;fontSize=12;fontStyle=0;aspect=fixed;pointerEvents=1;shape=mxgraph.aws4.rds_instance;" parent="5uDzMRbxscLC0Sf3smg1-31" vertex="1">
          <mxGeometry x="135.5" y="80" width="60" height="60" as="geometry" />
        </mxCell>
        <mxCell id="5uDzMRbxscLC0Sf3smg1-35" value="primary RDS" style="text;html=1;align=center;verticalAlign=middle;resizable=0;points=[];autosize=1;strokeColor=none;fillColor=none;" parent="5uDzMRbxscLC0Sf3smg1-31" vertex="1">
          <mxGeometry x="120.5" y="140" width="90" height="30" as="geometry" />
        </mxCell>
        <mxCell id="5uDzMRbxscLC0Sf3smg1-36" value="Private subnet" style="points=[[0,0],[0.25,0],[0.5,0],[0.75,0],[1,0],[1,0.25],[1,0.5],[1,0.75],[1,1],[0.75,1],[0.5,1],[0.25,1],[0,1],[0,0.75],[0,0.5],[0,0.25]];outlineConnect=0;gradientColor=none;html=1;whiteSpace=wrap;fontSize=12;fontStyle=0;container=1;pointerEvents=0;collapsible=0;recursiveResize=0;shape=mxgraph.aws4.group;grIcon=mxgraph.aws4.group_security_group;grStroke=0;strokeColor=#00A4A6;fillColor=#E6F6F7;verticalAlign=top;align=left;spacingLeft=30;fontColor=#147EBA;dashed=0;" parent="1" vertex="1">
          <mxGeometry x="380" y="1240" width="300" height="250" as="geometry" />
        </mxCell>
        <mxCell id="5uDzMRbxscLC0Sf3smg1-37" value="4" style="text;html=1;align=center;verticalAlign=middle;resizable=0;points=[];autosize=1;strokeColor=none;fillColor=none;fontColor=#1DA3A5;" parent="5uDzMRbxscLC0Sf3smg1-36" vertex="1">
          <mxGeometry x="102" y="-1" width="30" height="30" as="geometry" />
        </mxCell>
        <mxCell id="5uDzMRbxscLC0Sf3smg1-38" value="Security group" style="fillColor=none;strokeColor=#DD3522;verticalAlign=top;fontStyle=0;fontColor=#DD3522;whiteSpace=wrap;html=1;" parent="5uDzMRbxscLC0Sf3smg1-36" vertex="1">
          <mxGeometry x="44.5" y="40" width="211" height="170" as="geometry" />
        </mxCell>
        <mxCell id="5uDzMRbxscLC0Sf3smg1-39" value="" style="endArrow=classic;html=1;rounded=0;exitX=0.51;exitY=0.897;exitDx=0;exitDy=0;exitPerimeter=0;edgeStyle=orthogonalEdgeStyle;" parent="1" target="5uDzMRbxscLC0Sf3smg1-21" edge="1">
          <mxGeometry width="50" height="50" relative="1" as="geometry">
            <mxPoint x="415.59000000000015" y="258.90999999999985" as="sourcePoint" />
            <mxPoint x="284.39" y="374" as="targetPoint" />
          </mxGeometry>
        </mxCell>
        <mxCell id="5uDzMRbxscLC0Sf3smg1-40" value="ap-southeast-2a" style="text;html=1;align=center;verticalAlign=middle;resizable=0;points=[];autosize=1;strokeColor=none;fillColor=none;fontColor=#545B63;" parent="1" vertex="1">
          <mxGeometry x="-270" y="548" width="110" height="30" as="geometry" />
        </mxCell>
        <mxCell id="5uDzMRbxscLC0Sf3smg1-41" value="ap-southeast-2b" style="text;html=1;align=center;verticalAlign=middle;resizable=0;points=[];autosize=1;strokeColor=none;fillColor=none;fontColor=#545B63;" parent="1" vertex="1">
          <mxGeometry x="441.39" y="548" width="110" height="30" as="geometry" />
        </mxCell>
        <mxCell id="5uDzMRbxscLC0Sf3smg1-42" value="" style="sketch=0;outlineConnect=0;fontColor=#232F3E;gradientColor=none;fillColor=#8C4FFF;strokeColor=none;dashed=0;verticalLabelPosition=bottom;verticalAlign=top;align=center;html=1;fontSize=12;fontStyle=0;aspect=fixed;pointerEvents=1;shape=mxgraph.aws4.application_load_balancer;" parent="1" vertex="1">
          <mxGeometry x="236" y="548" width="52" height="52" as="geometry" />
        </mxCell>
        <mxCell id="5uDzMRbxscLC0Sf3smg1-43" value="application&lt;div&gt;load balancer&lt;/div&gt;" style="text;html=1;align=center;verticalAlign=middle;resizable=0;points=[];autosize=1;strokeColor=none;fillColor=none;" parent="1" vertex="1">
          <mxGeometry x="218.78999999999996" y="600" width="100" height="40" as="geometry" />
        </mxCell>
        <mxCell id="5uDzMRbxscLC0Sf3smg1-44" value="NAT gateway" style="sketch=0;outlineConnect=0;fontColor=#232F3E;gradientColor=none;strokeColor=#232F3E;fillColor=#ffffff;dashed=0;verticalLabelPosition=bottom;verticalAlign=top;align=center;html=1;fontSize=12;fontStyle=0;aspect=fixed;shape=mxgraph.aws4.resourceIcon;resIcon=mxgraph.aws4.nat_gateway;" parent="1" vertex="1">
          <mxGeometry x="491.39" y="650" width="60" height="60" as="geometry" />
        </mxCell>
        <mxCell id="5uDzMRbxscLC0Sf3smg1-45" value="" style="sketch=0;outlineConnect=0;fontColor=#232F3E;gradientColor=none;fillColor=#C925D1;strokeColor=none;dashed=0;verticalLabelPosition=bottom;verticalAlign=top;align=center;html=1;fontSize=12;fontStyle=0;aspect=fixed;pointerEvents=1;shape=mxgraph.aws4.rds_instance;" parent="1" vertex="1">
          <mxGeometry x="500" y="1320" width="60" height="60" as="geometry" />
        </mxCell>
        <mxCell id="5uDzMRbxscLC0Sf3smg1-58" value="backup RDS" style="text;html=1;align=center;verticalAlign=middle;resizable=0;points=[];autosize=1;strokeColor=none;fillColor=none;" parent="1" vertex="1">
          <mxGeometry x="485" y="1380" width="90" height="30" as="geometry" />
        </mxCell>
        <mxCell id="5uDzMRbxscLC0Sf3smg1-59" value="" style="endArrow=classic;startArrow=classic;html=1;rounded=0;exitX=0.5;exitY=0;exitDx=0;exitDy=0;entryX=0.25;entryY=1;entryDx=0;entryDy=0;" parent="1" source="5uDzMRbxscLC0Sf3smg1-32" target="lHyy_BqDiXbWExlvF2zH-14" edge="1">
          <mxGeometry width="50" height="50" relative="1" as="geometry">
            <mxPoint x="270" y="1010" as="sourcePoint" />
            <mxPoint x="-200" y="1080.0000000000005" as="targetPoint" />
          </mxGeometry>
        </mxCell>
        <mxCell id="5uDzMRbxscLC0Sf3smg1-60" value="" style="endArrow=classic;startArrow=classic;html=1;rounded=0;exitX=1;exitY=0.5;exitDx=0;exitDy=0;entryX=0;entryY=0.5;entryDx=0;entryDy=0;" parent="1" source="5uDzMRbxscLC0Sf3smg1-32" target="5uDzMRbxscLC0Sf3smg1-38" edge="1">
          <mxGeometry width="50" height="50" relative="1" as="geometry">
            <mxPoint x="270" y="1010" as="sourcePoint" />
            <mxPoint x="320" y="960" as="targetPoint" />
          </mxGeometry>
        </mxCell>
        <mxCell id="5uDzMRbxscLC0Sf3smg1-62" value="" style="endArrow=classic;html=1;rounded=0;exitX=0.41;exitY=0.887;exitDx=0;exitDy=0;exitPerimeter=0;" parent="1" source="5uDzMRbxscLC0Sf3smg1-11" edge="1">
          <mxGeometry width="50" height="50" relative="1" as="geometry">
            <mxPoint x="264" y="17" as="sourcePoint" />
            <mxPoint x="264.26952612848845" y="40" as="targetPoint" />
          </mxGeometry>
        </mxCell>
        <mxCell id="5uDzMRbxscLC0Sf3smg1-65" value="" style="endArrow=classic;html=1;rounded=0;exitX=0.447;exitY=1.1;exitDx=0;exitDy=0;exitPerimeter=0;edgeStyle=orthogonalEdgeStyle;startArrow=classic;startFill=1;" parent="1" source="5uDzMRbxscLC0Sf3smg1-23" target="5uDzMRbxscLC0Sf3smg1-42" edge="1">
          <mxGeometry width="50" height="50" relative="1" as="geometry">
            <mxPoint x="270" y="940" as="sourcePoint" />
            <mxPoint x="320" y="890" as="targetPoint" />
          </mxGeometry>
        </mxCell>
        <mxCell id="lHyy_BqDiXbWExlvF2zH-11" value="" style="sketch=0;points=[[0,0,0],[0.25,0,0],[0.5,0,0],[0.75,0,0],[1,0,0],[0,1,0],[0.25,1,0],[0.5,1,0],[0.75,1,0],[1,1,0],[0,0.25,0],[0,0.5,0],[0,0.75,0],[1,0.25,0],[1,0.5,0],[1,0.75,0]];points=[[0,0,0],[0.25,0,0],[0.5,0,0],[0.75,0,0],[1,0,0],[0,1,0],[0.25,1,0],[0.5,1,0],[0.75,1,0],[1,1,0],[0,0.25,0],[0,0.5,0],[0,0.75,0],[1,0.25,0],[1,0.5,0],[1,0.75,0]];outlineConnect=0;fontColor=#232F3E;fillColor=#E7157B;strokeColor=#ffffff;dashed=0;verticalLabelPosition=bottom;verticalAlign=top;align=center;html=1;fontSize=12;fontStyle=0;aspect=fixed;shape=mxgraph.aws4.resourceIcon;resIcon=mxgraph.aws4.systems_manager;" vertex="1" parent="1">
          <mxGeometry x="-438" y="140" width="50" height="50" as="geometry" />
        </mxCell>
        <mxCell id="lHyy_BqDiXbWExlvF2zH-12" value="systems manager" style="text;html=1;align=center;verticalAlign=middle;whiteSpace=wrap;rounded=0;" vertex="1" parent="1">
          <mxGeometry x="-473" y="190" width="120" height="30" as="geometry" />
        </mxCell>
        <mxCell id="lHyy_BqDiXbWExlvF2zH-13" value="Amazon CloudWatch" style="sketch=0;outlineConnect=0;fontColor=#232F3E;gradientColor=none;strokeColor=#ffffff;fillColor=#232F3E;dashed=0;verticalLabelPosition=middle;verticalAlign=bottom;align=center;html=1;whiteSpace=wrap;fontSize=10;fontStyle=1;spacing=3;shape=mxgraph.aws4.productIcon;prIcon=mxgraph.aws4.cloudwatch;" vertex="1" parent="1">
          <mxGeometry x="-485" y="-50" width="55" height="90" as="geometry" />
        </mxCell>
        <mxCell id="lHyy_BqDiXbWExlvF2zH-24" value="Amazon ECR" style="sketch=0;outlineConnect=0;fontColor=#232F3E;gradientColor=none;strokeColor=#ffffff;fillColor=#232F3E;dashed=0;verticalLabelPosition=middle;verticalAlign=bottom;align=center;html=1;whiteSpace=wrap;fontSize=10;fontStyle=1;spacing=3;shape=mxgraph.aws4.productIcon;prIcon=mxgraph.aws4.ecr;" vertex="1" parent="1">
          <mxGeometry x="-590" y="830" width="60" height="90" as="geometry" />
        </mxCell>
        <mxCell id="lHyy_BqDiXbWExlvF2zH-25" value="" style="sketch=0;points=[[0,0,0],[0.25,0,0],[0.5,0,0],[0.75,0,0],[1,0,0],[0,1,0],[0.25,1,0],[0.5,1,0],[0.75,1,0],[1,1,0],[0,0.25,0],[0,0.5,0],[0,0.75,0],[1,0.25,0],[1,0.5,0],[1,0.75,0]];outlineConnect=0;fontColor=#232F3E;fillColor=#ED7100;strokeColor=#ffffff;dashed=0;verticalLabelPosition=bottom;verticalAlign=top;align=center;html=1;fontSize=12;fontStyle=0;aspect=fixed;shape=mxgraph.aws4.resourceIcon;resIcon=mxgraph.aws4.fargate;" vertex="1" parent="1">
          <mxGeometry x="-330" y="860" width="50" height="50" as="geometry" />
        </mxCell>
        <mxCell id="lHyy_BqDiXbWExlvF2zH-28" value="ECS Fargate" style="text;html=1;align=center;verticalAlign=middle;resizable=0;points=[];autosize=1;strokeColor=none;fillColor=none;" vertex="1" parent="1">
          <mxGeometry x="-350" y="910" width="90" height="30" as="geometry" />
        </mxCell>
        <mxCell id="lHyy_BqDiXbWExlvF2zH-29" value="Parameter&#xa;Store" style="sketch=0;outlineConnect=0;fontColor=#232F3E;gradientColor=none;strokeColor=#232F3E;fillColor=#ffffff;dashed=0;verticalLabelPosition=bottom;verticalAlign=top;align=center;html=1;fontSize=12;fontStyle=0;aspect=fixed;shape=mxgraph.aws4.resourceIcon;resIcon=mxgraph.aws4.parameter_store;" vertex="1" parent="1">
          <mxGeometry x="-590" y="940" width="60" height="60" as="geometry" />
        </mxCell>
        <mxCell id="lHyy_BqDiXbWExlvF2zH-30" value="Amazon ECR" style="sketch=0;outlineConnect=0;fontColor=#232F3E;gradientColor=none;strokeColor=#ffffff;fillColor=#232F3E;dashed=0;verticalLabelPosition=middle;verticalAlign=bottom;align=center;html=1;whiteSpace=wrap;fontSize=10;fontStyle=1;spacing=3;shape=mxgraph.aws4.productIcon;prIcon=mxgraph.aws4.ecr;" vertex="1" parent="1">
          <mxGeometry x="-595" y="1060" width="70" height="90" as="geometry" />
        </mxCell>
      </root>
    </mxGraphModel>
  </diagram>
</mxfile>
